Coordinates
version=1
nRows=17
nColumns=36
inDegrees=yes

Units are S.I. units (second, meters, Newtons, ...)
If the header above contains a line with 'inDegrees', this indicates whether rotational values are in degrees (yes) or radians (no).

endheader
time	pelvis_tilt	pelvis_list	pelvis_rotation	pelvis_tx	pelvis_ty	pelvis_tz	hip_flexion_r	hip_adduction_r	hip_rotation_r	knee_angle_r	knee_angle_r_beta	ankle_angle_r	subtalar_angle_r	mtp_angle_r	hip_flexion_l	hip_adduction_l	hip_rotation_l	knee_angle_l	knee_angle_l_beta	ankle_angle_l	subtalar_angle_l	mtp_angle_l	lumbar_extension	lumbar_bending	lumbar_rotation	arm_flex_r	arm_add_r	arm_rot_r	elbow_flex_r	pro_sup_r	arm_flex_l	arm_add_l	arm_rot_l	elbow_flex_l	pro_sup_l
      0.96000000	    -15.19886979	      0.19458846	     -5.53305316	     -0.51218220	      1.13386220	     -0.57688503	     45.66871096	     -8.02146841	    -10.31937440	     27.06534093	      0.47237931	     -9.64872473	      3.73393106	     -6.42834664	     45.66673140	    -15.28227374	    -10.84387817	     11.41082957	      0.19915655	    -31.47226527	      3.42486196	     -6.42834664	    -28.32053061	     -3.08944423	    -10.60835479	     45.38071222	    -50.93611739	     17.78872513	    111.52156923	    100.60991123	    -13.09961596	    -31.86290491	    -21.80915653	    125.21265235	    112.55648490
      0.97000000	    -15.00776957	      0.10564998	     -5.13007342	     -0.49894059	      1.11516306	     -0.57734115	     45.13427396	     -8.21419414	    -10.32929494	     25.20006368	      0.43982408	     -9.89106333	      3.27494964	     -6.43309899	     45.35388064	    -15.19309196	    -10.24615595	     11.12027758	      0.19408546	    -31.62206972	      3.46377993	     -6.43309899	    -28.21099427	     -2.99722899	    -11.03969426	     44.68801891	    -53.77774351	     16.96739728	    112.99802884	    100.71517847	    -14.89647627	    -33.80290064	    -25.18398285	    128.34042371	    113.08633924
      0.98000000	    -14.78281884	      0.08959786	     -4.78573416	     -0.48583715	      1.09539486	     -0.57746061	     44.62899938	     -8.34970931	     -9.94798283	     23.66591036	      0.41304806	    -10.62898228	      1.79715680	     -6.47613450	     45.10236213	    -15.12796303	     -9.78569025	     11.25188105	      0.19638237	    -31.86606690	      3.59872358	     -6.47613450	    -28.12698281	     -3.04047975	    -12.00250632	     44.78782340	    -55.80061578	     16.69733446	    114.05762005	     99.83838018	    -17.92253011	    -35.86638850	    -29.96838251	    131.97293501	    112.83743266
      0.99000000	    -14.30266510	      0.00142554	     -4.44343864	     -0.47302736	      1.07469464	     -0.57761494	     43.89491793	     -8.47313687	     -9.65080146	     22.49848887	      0.39267271	    -11.14948721	      0.84345471	     -6.68842128	     44.78852400	    -15.11649762	     -9.25044761	     11.94045123	      0.20840019	    -32.07660676	      3.70965112	     -6.68842128	    -28.36386468	     -2.83197016	    -15.08114729	     50.40378088	    -55.81222980	     22.39385761	    113.35387784	     96.03511157	    -24.95412928	    -36.52752183	    -39.82353954	    136.39444654	    112.14417744
      1.00000000	    -13.90283445	     -0.02450246	     -4.03738788	     -0.46022955	      1.05272494	     -0.57784866	     43.36107475	     -8.69647184	     -9.29372737	     21.81588492	      0.38075902	    -11.95804638	      0.16077951	     -6.83029147	     44.71633873	    -14.98270569	     -8.58562683	     13.06741886	      0.22806948	    -32.58517424	      3.89996167	     -6.83029147	    -28.48655723	     -2.79193958	    -16.94151328	     53.34365309	    -57.08914354	     24.97835237	    113.72466085	     94.74788373	    -30.40358037	    -37.69294126	    -48.42098960	    139.65880112	    111.72925066
      1.01000000	    -13.53534224	     -0.01794079	     -3.50120464	     -0.44759680	      1.02943064	     -0.57835399	     43.00441405	     -9.07638730	     -9.00863679	     21.74143569	      0.37945964	    -12.34066616	      0.18407361	     -6.94442888	     44.94524920	    -14.70842639	     -7.88117589	     14.80325713	      0.25836558	    -33.13587940	      4.00522167	     -6.94442888	    -28.53385989	     -2.77526961	    -18.86413426	     56.50635831	    -58.33543677	     27.69400645	    114.01368807	     93.59836558	    -36.23596429	    -38.58445577	    -57.98961695	    142.36460431	    111.20959400
      1.02000000	    -13.15577096	      0.08356932	     -2.99069431	     -0.43523439	      1.00498161	     -0.57870001	     42.84849621	     -9.49724655	     -8.46129837	     22.25444564	      0.38841335	    -12.28912374	      0.52856067	     -7.03533559	     45.40580579	    -14.42644242	     -7.44673836	     17.29974732	      0.30193755	    -33.26200883	      4.46358884	     -7.03533559	    -28.52171353	     -2.87680464	    -20.84971146	     60.33598985	    -59.32541415	     30.87432302	    114.21213335	     92.51169050	    -42.35602484	    -39.06237919	    -68.42229764	    144.64714639	    110.55644562
      1.03000000	    -12.73065610	      0.20230826	     -2.61612918	     -0.42284673	      0.97941611	     -0.57862933	     42.88694266	     -9.82705168	     -7.65180196	     23.25635439	      0.40589996	    -12.66308358	      1.54733905	     -7.10763524	     45.96736210	    -14.31804734	     -7.43417234	     20.24851762	      0.35340330	    -34.04088957	      5.68953993	     -7.10763524	    -28.52002561	     -3.15391885	    -22.75882485	     64.19616596	    -60.04540088	     34.08318147	    114.18458058	     91.45641060	    -49.17815660	    -39.09157878	    -79.96399321	    146.50358557	    109.76558796
      1.04000000	    -12.56687501	      0.11339491	     -2.13285960	     -0.41016830	      0.95220919	     -0.57868513	     43.04492685	    -10.00796405	     -7.21680054	     24.14990398	      0.42149534	    -13.50603746	      2.82942533	     -7.11578097	     47.06972894	    -14.28906235	     -7.14845316	     23.64169089	      0.41262535	    -35.58847390	      6.45325926	     -7.11578097	    -28.02709018	     -3.03328204	    -22.09437505	     65.66639587	    -64.54841599	     34.73549351	    116.46362658	     91.43604144	    -52.50676882	    -42.12131961	    -86.77326829	    146.94340303	    108.95167780
      1.05000000	    -12.17384249	      0.32720557	     -1.54580048	     -0.39820433	      0.92383402	     -0.57854212	     42.94300989	    -10.44044360	     -6.53767049	     25.59091429	      0.44664571	    -10.54522165	      2.83586209	     -7.17464475	     48.00829960	    -13.81462390	     -6.59154952	     27.99440233	      0.48859449	    -32.54604209	      5.52075531	     -7.17464475	    -27.93504251	     -3.64000004	    -26.05457103	     71.95719782	    -61.77823776	     40.22930733	    114.29606629	     89.30328549	    -62.77088298	    -38.62404460	   -103.54031372	    147.78359413	    107.16046503
      1.06000000	    -12.33003064	      0.38089558	     -1.25560404	     -0.38755407	      0.89451840	     -0.57885651	     44.30140686	    -10.70238306	     -5.74798572	     29.48738837	      0.51465201	     -2.43520454	      0.16067820	     -7.23169961	     49.73454173	    -13.54361742	     -5.70382089	     34.00422893	      0.59348575	    -20.75465806	      2.75022166	     -7.23169961	    -27.29644688	     -3.93444306	    -27.11373468	     76.38761443	    -62.76874699	     43.55253507	    114.36504666	     87.37889809	    -68.99040590	    -38.05880724	   -114.72328447	    147.54411865	    104.42954388
      1.07000000	    -12.70193617	      0.42335315	     -1.51709953	     -0.37993238	      0.86543161	     -0.57923463	     48.81377807	    -11.07113079	     -4.43895077	     38.44309822	      0.67095864	      7.08225109	     -2.82529130	     -7.27513279	     51.69541069	    -13.47983586	     -4.63818230	     40.28129848	      0.70304129	     -4.54443089	     -0.40475690	     -7.27513279	    -26.80082907	     -4.27220779	    -27.31646315	     81.35513432	    -63.89662977	     46.68057713	    114.46717662	     85.60750788	    -74.46967865	    -37.81796997	   -125.16489225	    146.58022110	    101.15933239
      1.08000000	    -13.12146210	      0.51031393	     -1.55829592	     -0.37573338	      0.83728729	     -0.57985178	     55.91184880	    -11.80825793	     -2.52225284	     50.67800487	      0.88449804	     11.97576618	     -3.86119268	     -7.31327135	     54.40884873	    -12.99316299	     -2.79273340	     46.14557608	      0.80539224	      6.69886303	     -3.48861108	     -7.31327135	    -26.77238727	     -4.56002646	    -27.60523455	     86.44924580	    -64.73415871	     49.26811268	    114.40345292	     83.91356491	    -80.04870832	    -37.70268784	   -135.76810286	    144.73221997	     97.67368076
      1.09000000	    -13.68663007	      0.11212346	     -0.80472327	     -0.37324101	      0.81110183	     -0.58158346	     62.57321352	    -12.70838796	     -1.23063035	     61.00500565	      1.06473821	     12.38528588	     -3.75807750	     -7.31926971	     58.93162292	    -11.94551675	      0.60282394	     52.79981313	      0.92153058	     10.50388628	     -6.65647717	     -7.31926971	    -27.14111991	     -4.00194389	    -27.92529026	     90.38192986	    -66.02993074	     50.12355734	    114.66981395	     83.67664667	    -85.02825521	    -37.92545872	   -145.47908525	    142.27810510	     96.41455296
      1.10000000	    -14.50217146	     -0.74264233	     -0.12328529	     -0.37017749	      0.78721340	     -0.58424452	     67.27618380	    -13.41323012	     -1.06568267	     67.65985455	      1.18088723	     13.16387467	     -3.26508725	     -7.32645784	     64.76988278	    -10.99235637	      4.26511221	     60.56485914	      1.05705620	     11.16712570	     -8.63602330	     -7.32645784	    -27.32035403	     -2.79365298	    -28.28863261	     93.77828431	    -66.38538803	     50.58073081	    114.60519999	     83.17070141	    -88.41928580	    -37.27771319	   -152.76661154	    140.14230254	     95.07511922
      1.11000000	    -15.29975944	     -1.36807799	     -0.20065712	     -0.36537691	      0.76610401	     -0.58616393	     70.36038508	    -13.60741711	     -1.07706481	     71.91900682	      1.25522346	     15.21997566	     -3.30574950	     -7.36652679	     69.89075948	    -10.70225554	      6.63852901	     67.72811553	      1.18207861	     12.40830734	     -8.65716877	     -7.36652679	    -27.46069482	     -2.02502324	    -27.83493955	     96.26894840	    -66.79718554	     50.58029063	    115.12953696	     79.94831728	    -90.36435705	    -37.17883180	   -157.62760641	    138.79585528	     91.05945563
      1.12000000	    -15.86890747	     -1.39609031	     -0.52021981	     -0.35961835	      0.74783556	     -0.58668356	     72.55717301	    -13.68130422	     -0.65658301	     75.20310997	      1.31254188	     18.03713222	     -3.29293782	     -7.37309591	     73.26951142	    -10.82454368	      7.54847670	     72.97448306	      1.27364500	     14.66182204	     -7.64803596	     -7.37309591	    -27.75875412	     -2.24518670	    -27.51915054	     95.82957838	    -66.39991678	     48.04636047	    115.21015154	     79.67622639	    -92.33107852	    -37.40272808	   -161.95397350	    137.15786024	     90.43674106
